<svg width="36" height="36" viewBox="0 0 36 36" fill="none" xmlns="http://www.w3.org/2000/svg">
<rect width="36" height="36" rx="8" fill="#ECEBF9"/>
<g clip-path="url(#clip0_764_920)">
<path d="M18 8C12.4772 8 8 12.4772 8 18C8 22.6896 11.2288 26.6248 15.5844 27.7056V21.056H13.5224V18H15.5844V16.6832C15.5844 13.2796 17.1248 11.702 20.4664 11.702C21.1 11.702 22.1932 11.8264 22.6404 11.9504V14.7204C22.4044 14.6956 21.9944 14.6832 21.4852 14.6832C19.8456 14.6832 19.212 15.3044 19.212 16.9192V18H22.4784L21.9172 21.056H19.212V27.9268C24.1636 27.3288 28.0004 23.1128 28.0004 18C28 12.4772 23.5228 8 18 8Z" fill="#4439C3"/>
</g>
<defs>
<clipPath id="clip0_764_920">
<rect width="20" height="20" fill="white" transform="translate(8 8)"/>
</clipPath>
</defs>
</svg>
