<svg width="216" height="48" viewBox="0 0 216 48" fill="none" xmlns="http://www.w3.org/2000/svg">
<path d="M60.8248 15.3938V41.0511H56.4032V15.3938H60.8248ZM60.1241 31.3628H58.8226C58.8226 30.1045 58.9894 28.9463 59.3232 27.8884C59.6569 26.8305 60.1296 25.9118 60.7414 25.1322C61.3532 24.3416 62.0818 23.7291 62.9272 23.2948C63.7837 22.8605 64.7292 22.6433 65.7637 22.6433C66.6536 22.6433 67.4601 22.7714 68.1831 23.0275C68.9173 23.2725 69.5458 23.6679 70.0686 24.2135C70.5914 24.7592 70.9919 25.4719 71.2699 26.3516C71.5592 27.2202 71.7038 28.2782 71.7038 29.5254V41.0511H67.2654V29.492C67.2654 28.6568 67.1431 27.9998 66.8984 27.5209C66.6536 27.0309 66.3032 26.6801 65.8472 26.4686C65.4022 26.257 64.8516 26.1512 64.1953 26.1512C63.4834 26.1512 62.8716 26.2904 62.3599 26.5688C61.8482 26.836 61.4255 27.2091 61.0918 27.6879C60.7692 28.1668 60.5245 28.718 60.3577 29.3416C60.2019 29.9653 60.1241 30.639 60.1241 31.3628Z" fill="white"/>
<path d="M80.2634 22.9774V41.0511H75.8418V22.9774H80.2634ZM75.5414 18.2502C75.5414 17.5932 75.7639 17.0475 76.2088 16.6132C76.6649 16.1789 77.2767 15.9618 78.0442 15.9618C78.8118 15.9618 79.418 16.1789 79.863 16.6132C80.319 17.0475 80.5471 17.5932 80.5471 18.2502C80.5471 18.8961 80.319 19.4362 79.863 19.8705C79.418 20.3048 78.8118 20.5219 78.0442 20.5219C77.2767 20.5219 76.6649 20.3048 76.2088 19.8705C75.7639 19.4362 75.5414 18.8961 75.5414 18.2502Z" fill="white"/>
<path d="M88.8731 26.669V41.0511H84.4681V22.9774H88.6395L88.8731 26.669ZM94.3626 22.8605L94.2959 26.9697C94.0512 26.9251 93.7731 26.8917 93.4616 26.8695C93.1613 26.8472 92.8776 26.836 92.6106 26.836C91.9321 26.836 91.337 26.9307 90.8253 27.12C90.3136 27.2982 89.8854 27.5599 89.5405 27.9051C89.2068 28.2503 88.951 28.6735 88.773 29.1746C88.595 29.6646 88.4949 30.2214 88.4727 30.845L87.5216 30.7281C87.5216 29.5811 87.6384 28.5176 87.872 27.5376C88.1056 26.5576 88.4448 25.7002 88.8898 24.9652C89.3347 24.2302 89.8909 23.6623 90.5583 23.2614C91.2369 22.8494 92.0155 22.6433 92.8943 22.6433C93.139 22.6433 93.4004 22.6656 93.6785 22.7102C93.9677 22.7436 94.1958 22.7937 94.3626 22.8605Z" fill="white"/>
<path d="M104.557 41.3852C103.189 41.3852 101.96 41.1625 100.87 40.717C99.7798 40.2716 98.851 39.6536 98.0835 38.8629C97.3271 38.0611 96.7431 37.1313 96.3315 36.0733C95.9311 35.0043 95.7308 33.8573 95.7308 32.6323V31.9642C95.7308 30.5722 95.9311 29.3082 96.3315 28.1724C96.732 27.0254 97.2993 26.0398 98.0334 25.2158C98.7676 24.3917 99.6464 23.7569 100.67 23.3115C101.693 22.8661 102.822 22.6433 104.057 22.6433C105.336 22.6433 106.465 22.8605 107.444 23.2948C108.423 23.718 109.24 24.3193 109.897 25.0988C110.553 25.8783 111.048 26.8138 111.382 27.9051C111.715 28.9853 111.882 30.1824 111.882 31.4964V33.3506H97.7331V30.3105H107.544V29.9764C107.522 29.2748 107.388 28.6345 107.144 28.0554C106.899 27.4652 106.521 26.9975 106.009 26.6523C105.497 26.2959 104.836 26.1178 104.024 26.1178C103.367 26.1178 102.794 26.2625 102.305 26.5521C101.827 26.8305 101.426 27.2314 101.104 27.7548C100.792 28.267 100.558 28.8795 100.403 29.5922C100.247 30.3049 100.169 31.0956 100.169 31.9642V32.6323C100.169 33.3896 100.269 34.0911 100.469 34.737C100.681 35.3829 100.987 35.9453 101.387 36.4241C101.799 36.8918 102.288 37.2593 102.856 37.5266C103.434 37.7827 104.09 37.9108 104.824 37.9108C105.748 37.9108 106.582 37.7326 107.327 37.3762C108.084 37.0088 108.74 36.4687 109.296 35.756L111.515 38.0611C111.137 38.6179 110.625 39.1524 109.98 39.6647C109.346 40.1769 108.579 40.5945 107.678 40.9175C106.777 41.2293 105.737 41.3852 104.557 41.3852Z" fill="white"/>
<path d="M119.241 26.4519V48H114.819V22.9774H118.907L119.241 26.4519ZM130.837 31.8305V32.1813C130.837 33.4954 130.681 34.7147 130.37 35.8395C130.07 36.9531 129.625 37.9275 129.035 38.7627C128.445 39.5867 127.711 40.2326 126.833 40.7003C125.965 41.1569 124.964 41.3852 123.829 41.3852C122.717 41.3852 121.749 41.1736 120.926 40.7504C120.103 40.3161 119.407 39.7037 118.84 38.913C118.273 38.1224 117.817 37.2036 117.472 36.1569C117.138 35.0989 116.888 33.9464 116.721 32.6991V31.58C116.888 30.2548 117.138 29.0521 117.472 27.9719C117.817 26.8806 118.273 25.9396 118.84 25.1489C119.407 24.3472 120.097 23.7291 120.909 23.2948C121.732 22.8605 122.695 22.6433 123.796 22.6433C124.942 22.6433 125.948 22.8605 126.816 23.2948C127.695 23.7291 128.434 24.3527 129.035 25.1656C129.636 25.9786 130.086 26.9474 130.387 28.0721C130.687 29.1969 130.837 30.4497 130.837 31.8305ZM126.415 32.1813V31.8305C126.415 31.0287 126.343 30.2882 126.198 29.6089C126.054 28.9185 125.831 28.3171 125.531 27.8049C125.231 27.2815 124.841 26.875 124.363 26.5855C123.885 26.2959 123.306 26.1512 122.628 26.1512C121.949 26.1512 121.365 26.2625 120.876 26.4853C120.386 26.708 119.986 27.0254 119.674 27.4374C119.363 27.8494 119.118 28.3394 118.94 28.9073C118.773 29.4641 118.662 30.0822 118.607 30.7615V33.5343C118.707 34.3584 118.901 35.0989 119.191 35.756C119.48 36.413 119.902 36.9364 120.459 37.3261C121.026 37.7159 121.76 37.9108 122.661 37.9108C123.34 37.9108 123.918 37.7604 124.396 37.4598C124.875 37.1591 125.264 36.7471 125.564 36.2237C125.865 35.6891 126.082 35.0767 126.215 34.3862C126.349 33.6958 126.415 32.9608 126.415 32.1813Z" fill="white"/>
<path d="M144.002 37.2092V28.8739C144.002 28.2614 143.896 27.7325 143.685 27.2871C143.473 26.8416 143.151 26.4964 142.717 26.2514C142.283 26.0064 141.733 25.8839 141.065 25.8839C140.476 25.8839 139.958 25.9841 139.513 26.1846C139.08 26.385 138.746 26.669 138.512 27.0365C138.279 27.3928 138.162 27.8049 138.162 28.2726H133.74C133.74 27.5265 133.918 26.8193 134.274 26.1512C134.63 25.4719 135.136 24.8705 135.793 24.3472C136.46 23.8126 137.255 23.395 138.179 23.0944C139.113 22.7937 140.159 22.6433 141.315 22.6433C142.684 22.6433 143.902 22.8772 144.97 23.3449C146.049 23.8015 146.894 24.4919 147.506 25.4162C148.129 26.3405 148.44 27.5042 148.44 28.9073V36.7916C148.44 37.6936 148.496 38.4676 148.607 39.1135C148.729 39.7482 148.907 40.2994 149.141 40.7671V41.0511H144.653C144.441 40.5945 144.28 40.0155 144.169 39.3139C144.057 38.6012 144.002 37.8996 144.002 37.2092ZM144.619 30.0432L144.653 32.6657H141.866C141.176 32.6657 140.57 32.7381 140.047 32.8829C139.525 33.0165 139.096 33.217 138.763 33.4842C138.429 33.7403 138.179 34.0522 138.012 34.4196C137.845 34.776 137.761 35.1825 137.761 35.639C137.761 36.0845 137.862 36.4854 138.062 36.8417C138.273 37.1981 138.574 37.482 138.963 37.6936C139.363 37.8941 139.83 37.9943 140.364 37.9943C141.143 37.9943 141.822 37.8384 142.4 37.5266C142.978 37.2036 143.429 36.8139 143.752 36.3573C144.074 35.9007 144.247 35.4664 144.269 35.0544L145.537 36.9586C145.381 37.4152 145.148 37.8996 144.836 38.4119C144.525 38.9241 144.124 39.403 143.635 39.8484C143.145 40.2939 142.556 40.6614 141.866 40.9509C141.176 41.2404 140.376 41.3852 139.463 41.3852C138.295 41.3852 137.25 41.1513 136.327 40.6836C135.403 40.2159 134.675 39.5756 134.141 38.7627C133.607 37.9497 133.34 37.0255 133.34 35.9898C133.34 35.0321 133.518 34.1858 133.874 33.4508C134.23 32.7158 134.758 32.0978 135.459 31.5967C136.16 31.0844 137.027 30.7002 138.062 30.4441C139.107 30.1768 140.303 30.0432 141.649 30.0432H144.619Z" fill="white"/>
<path d="M160.954 22.9774V26.1512H150.609V22.9774H160.954ZM153.379 18.5342H157.801V35.8395C157.801 36.374 157.873 36.786 158.018 37.0756C158.162 37.3651 158.379 37.56 158.668 37.6602C158.958 37.7604 159.302 37.8105 159.703 37.8105C159.992 37.8105 160.259 37.7938 160.504 37.7604C160.749 37.727 160.954 37.6936 161.121 37.6602L161.138 40.9676C160.771 41.0901 160.354 41.1903 159.886 41.2683C159.43 41.3462 158.913 41.3852 158.335 41.3852C157.345 41.3852 156.477 41.2182 155.732 40.8841C154.986 40.5389 154.408 39.9876 153.996 39.2304C153.585 38.462 153.379 37.4486 153.379 36.1903V18.5342Z" fill="white"/>
<path d="M168.212 15.3938V41.0511H163.791V15.3938H168.212ZM167.512 31.3628H166.21C166.21 30.1045 166.377 28.9463 166.711 27.8884C167.044 26.8305 167.517 25.9118 168.129 25.1322C168.741 24.3416 169.469 23.7291 170.315 23.2948C171.171 22.8605 172.117 22.6433 173.151 22.6433C174.041 22.6433 174.848 22.7714 175.571 23.0275C176.305 23.2725 176.933 23.6679 177.456 24.2135C177.979 24.7592 178.379 25.4719 178.658 26.3516C178.947 27.2202 179.091 28.2782 179.091 29.5254V41.0511H174.653V29.492C174.653 28.6568 174.531 27.9998 174.286 27.5209C174.041 27.0309 173.691 26.6801 173.235 26.4686C172.79 26.257 172.239 26.1512 171.583 26.1512C170.871 26.1512 170.259 26.2904 169.748 26.5688C169.236 26.836 168.813 27.2091 168.479 27.6879C168.157 28.1668 167.912 28.718 167.745 29.3416C167.59 29.9653 167.512 30.639 167.512 31.3628Z" fill="white"/>
<path d="M183.163 38.8963C183.163 38.2281 183.391 37.6658 183.847 37.2092C184.303 36.7526 184.92 36.5243 185.699 36.5243C186.477 36.5243 187.095 36.7526 187.551 37.2092C188.007 37.6658 188.235 38.2281 188.235 38.8963C188.235 39.5533 188.007 40.1101 187.551 40.5667C187.095 41.0121 186.477 41.2349 185.699 41.2349C184.92 41.2349 184.303 41.0121 183.847 40.5667C183.391 40.1101 183.163 39.5533 183.163 38.8963Z" fill="white"/>
<path d="M202.635 37.2092V28.8739C202.635 28.2614 202.529 27.7325 202.318 27.2871C202.106 26.8416 201.784 26.4964 201.35 26.2514C200.916 26.0064 200.365 25.8839 199.698 25.8839C199.108 25.8839 198.591 25.9841 198.146 26.1846C197.712 26.385 197.379 26.669 197.145 27.0365C196.911 27.3928 196.795 27.8049 196.795 28.2726H192.373C192.373 27.5265 192.551 26.8193 192.907 26.1512C193.263 25.4719 193.769 24.8705 194.425 24.3472C195.093 23.8126 195.888 23.395 196.811 23.0944C197.746 22.7937 198.791 22.6433 199.948 22.6433C201.316 22.6433 202.534 22.8772 203.602 23.3449C204.681 23.8015 205.527 24.4919 206.139 25.4162C206.761 26.3405 207.073 27.5042 207.073 28.9073V36.7916C207.073 37.6936 207.129 38.4676 207.24 39.1135C207.362 39.7482 207.54 40.2994 207.774 40.7671V41.0511H203.285C203.074 40.5945 202.913 40.0155 202.801 39.3139C202.69 38.6012 202.635 37.8996 202.635 37.2092ZM203.252 30.0432L203.285 32.6657H200.499C199.809 32.6657 199.203 32.7381 198.68 32.8829C198.157 33.0165 197.729 33.217 197.395 33.4842C197.062 33.7403 196.811 34.0522 196.644 34.4196C196.478 34.776 196.394 35.1825 196.394 35.639C196.394 36.0845 196.494 36.4854 196.695 36.8417C196.906 37.1981 197.206 37.482 197.596 37.6936C197.996 37.8941 198.463 37.9943 198.997 37.9943C199.776 37.9943 200.454 37.8384 201.033 37.5266C201.611 37.2036 202.062 36.8139 202.384 36.3573C202.707 35.9007 202.879 35.4664 202.902 35.0544L204.17 36.9586C204.014 37.4152 203.78 37.8996 203.469 38.4119C203.157 38.9241 202.757 39.403 202.267 39.8484C201.778 40.2939 201.188 40.6614 200.499 40.9509C199.809 41.2404 199.008 41.3852 198.096 41.3852C196.928 41.3852 195.883 41.1513 194.959 40.6836C194.036 40.2159 193.307 39.5756 192.773 38.7627C192.24 37.9497 191.973 37.0255 191.973 35.9898C191.973 35.0321 192.151 34.1858 192.506 33.4508C192.862 32.7158 193.391 32.0978 194.092 31.5967C194.792 31.0844 195.66 30.7002 196.695 30.4441C197.74 30.1768 198.936 30.0432 200.282 30.0432H203.252Z" fill="white"/>
<path d="M215.716 22.9774V41.0511H211.294V22.9774H215.716ZM210.994 18.2502C210.994 17.5932 211.216 17.0475 211.661 16.6132C212.117 16.1789 212.729 15.9618 213.497 15.9618C214.264 15.9618 214.871 16.1789 215.316 16.6132C215.772 17.0475 216 17.5932 216 18.2502C216 18.8961 215.772 19.4362 215.316 19.8705C214.871 20.3048 214.264 20.5219 213.497 20.5219C212.729 20.5219 212.117 20.3048 211.661 19.8705C211.216 19.4362 210.994 18.8961 210.994 18.2502Z" fill="white"/>
<path d="M0 33.3534C0 31.9364 1.14785 30.7877 2.5638 30.7877H5.1276C6.54354 30.7877 7.69139 31.9364 7.69139 33.3534V38.4847C7.69139 39.9016 6.54354 41.0503 5.1276 41.0503H2.5638C1.14785 41.0503 0 39.9016 0 38.4847V33.3534Z" fill="white"/>
<path d="M20.5104 17.9595C20.5104 16.5425 21.6582 15.3939 23.0742 15.3939H25.638C27.0539 15.3939 28.2018 16.5425 28.2018 17.9595V38.4847C28.2018 39.9016 27.0539 41.0503 25.638 41.0503H23.0742C21.6582 41.0503 20.5104 39.9016 20.5104 38.4847V17.9595Z" fill="white"/>
<path d="M10.2552 38.4847C10.2552 37.0677 11.403 35.919 12.819 35.919H15.3828C16.7987 35.919 17.9466 37.0677 17.9466 38.4847C17.9466 39.9016 16.7987 41.0503 15.3828 41.0503H12.819C11.403 41.0503 10.2552 39.9016 10.2552 38.4847Z" fill="white"/>
<path d="M30.7656 10.2626C30.7656 8.84561 31.9134 7.69693 33.3294 7.69693H35.8932C37.3091 7.69693 38.457 8.84561 38.457 10.2626C38.457 11.6795 37.3091 12.8282 35.8932 12.8282H33.3294C31.9134 12.8282 30.7656 11.6795 30.7656 10.2626Z" fill="white"/>
<path d="M10.2552 25.6564C10.2552 24.2395 11.403 23.0908 12.819 23.0908H15.3828C16.7987 23.0908 17.9466 24.2395 17.9466 25.6564V30.7877C17.9466 32.2047 16.7987 33.3534 15.3828 33.3534H12.819C11.403 33.3534 10.2552 32.2047 10.2552 30.7877V25.6564Z" fill="white"/>
<path d="M43.5846 0C42.1686 0 41.0208 1.14868 41.0208 2.56564V25.6564C41.0208 27.0734 39.8729 28.2221 38.457 28.2221H33.3294C31.9134 28.2221 30.7656 29.3708 30.7656 30.7877V38.4847C30.7656 39.9016 31.9134 41.0503 33.3294 41.0503H46.1484C47.5643 41.0503 48.7122 39.9016 48.7122 38.4847V2.56564C48.7122 1.14868 47.5643 0 46.1484 0H43.5846Z" fill="white"/>
<path d="M30.7656 17.9595C30.7656 16.5425 31.9134 15.3939 33.3294 15.3939H35.8932C37.3091 15.3939 38.457 16.5425 38.457 17.9595V23.0908C38.457 24.5078 37.3091 25.6564 35.8932 25.6564H33.3294C31.9134 25.6564 30.7656 24.5078 30.7656 23.0908V17.9595Z" fill="white"/>
</svg>
